<?xml version="1.0" encoding="UTF-8" standalone="no"?>
<svg
   xmlns:dc="http://purl.org/dc/elements/1.1/"
   xmlns:cc="http://creativecommons.org/ns#"
   xmlns:rdf="http://www.w3.org/1999/02/22-rdf-syntax-ns#"
   xmlns:svg="http://www.w3.org/2000/svg"
   xmlns="http://www.w3.org/2000/svg"
   xmlns:sodipodi="http://sodipodi.sourceforge.net/DTD/sodipodi-0.dtd"
   xmlns:inkscape="http://www.inkscape.org/namespaces/inkscape"
   version="1.1"
   x="0px"
   y="0px"
   viewBox="0 0 89.764 69.166"
   enable-background="new 0 0 100 100"
   xml:space="preserve"
   id="svg2"
   inkscape:version="0.91 r13725"
   sodipodi:docname="rotate.svg"
   width="89.764"
   height="69.166"><metadata
     id="metadata28"><rdf:RDF><cc:Work
         rdf:about=""><dc:format>image/svg+xml</dc:format><dc:type
           rdf:resource="http://purl.org/dc/dcmitype/StillImage" /><dc:title></dc:title></cc:Work></rdf:RDF></metadata><defs
     id="defs26" /><sodipodi:namedview
     pagecolor="#ffffff"
     bordercolor="#666666"
     borderopacity="1"
     objecttolerance="10"
     gridtolerance="10"
     guidetolerance="10"
     inkscape:pageopacity="0"
     inkscape:pageshadow="2"
     inkscape:window-width="1325"
     inkscape:window-height="744"
     id="namedview24"
     showgrid="false"
     inkscape:zoom="2.6700352"
     inkscape:cx="63.400634"
     inkscape:cy="17.886582"
     inkscape:window-x="41"
     inkscape:window-y="1054"
     inkscape:window-maximized="1"
     inkscape:current-layer="svg2"
     fit-margin-top="0"
     fit-margin-left="0"
     fit-margin-right="0"
     fit-margin-bottom="0" /><g
     id="g4"
     transform="translate(-5.017,-15.038)"><g
       id="g6"><path
         d="m 27.291,71.879 -19.731,0 c -0.198,0 -0.359,-0.16 -0.359,-0.359 l 0,-46.94 c 0,-0.198 0.161,-0.359 0.359,-0.359 l 26.476,0 c 0.198,0 0.359,0.161 0.359,0.359 l 0,26.915 1.884,0 0,-32.299 c 0,-2.181 -1.768,-3.949 -3.949,-3.949 l -0.902,0 c -0.057,-0.123 -0.18,-0.209 -0.324,-0.209 l -3.44,0 c -0.144,0 -0.267,0.087 -0.324,0.209 l -18.165,0 c -2.181,0 -3.949,1.768 -3.949,3.949 l 0,5.102 c -0.123,0.058 -0.209,0.18 -0.209,0.324 l 0,1.305 c 0,0.144 0.086,0.267 0.209,0.324 l 0,1.517 c -0.123,0.057 -0.209,0.18 -0.209,0.324 l 0,1.305 c 0,0.144 0.086,0.267 0.209,0.323 l 0,47.064 c 0,2.182 1.768,3.949 3.949,3.949 l 18.115,0 0,-8.854 z M 20.634,17.79 c 0.33,0 0.598,0.268 0.598,0.598 0,0.33 -0.268,0.599 -0.598,0.599 -0.331,0 -0.599,-0.269 -0.599,-0.599 0.001,-0.331 0.269,-0.598 0.599,-0.598 z m -2.094,2.812 4.488,0 c 0.198,0 0.359,0.161 0.359,0.359 0,0.198 -0.161,0.358 -0.359,0.358 l -4.488,0 c -0.198,0 -0.359,-0.16 -0.359,-0.358 0,-0.198 0.16,-0.359 0.359,-0.359 z m 2.453,58.635 c -1.715,0 -3.111,-1.395 -3.111,-3.111 0,-1.715 1.396,-3.111 3.111,-3.111 1.716,0 3.111,1.396 3.111,3.111 0,1.717 -1.395,3.111 -3.111,3.111 z"
         id="path8"
         inkscape:connector-curvature="0" /><path
         d="m 21.007,73.703 c -1.32,0 -2.394,1.074 -2.394,2.393 0,1.32 1.074,2.395 2.394,2.395 1.32,0 2.393,-1.074 2.393,-2.395 0,-1.319 -1.073,-2.393 -2.393,-2.393 z"
         id="path10"
         inkscape:connector-curvature="0" /></g><g
       id="g12"><circle
         cx="33.692001"
         cy="68.917"
         r="2.3940001"
         id="circle14" /><path
         d="m 94.572,75.265 0,-18.165 c 0,-2.182 -1.768,-3.948 -3.949,-3.948 l -5.102,0 c -0.057,-0.124 -0.18,-0.209 -0.323,-0.209 l -1.307,0 c -0.144,0 -0.267,0.085 -0.322,0.209 l -1.519,0 c -0.058,-0.124 -0.18,-0.209 -0.324,-0.209 l -1.304,0 c -0.146,0 -0.268,0.085 -0.325,0.209 l -47.063,0 c -2.181,0 -3.949,1.767 -3.949,3.948 l 0,23.155 c 0,2.181 1.768,3.949 3.949,3.949 l 57.589,0 c 2.182,0 3.949,-1.769 3.949,-3.949 l 0,-0.901 c 0.123,-0.058 0.209,-0.18 0.209,-0.325 l 0,-3.44 c 0,-0.145 -0.086,-0.268 -0.209,-0.324 z m -60.88,-3.237 c -1.715,0 -3.111,-1.395 -3.111,-3.111 0,-1.716 1.396,-3.111 3.111,-3.111 1.715,0 3.111,1.396 3.111,3.111 0,1.717 -1.396,3.111 -3.111,3.111 z m 51.906,9.932 c 0,0.199 -0.161,0.358 -0.359,0.358 l -46.94,0 c -0.198,0 -0.359,-0.159 -0.359,-0.358 l 0,-26.476 c 0,-0.198 0.161,-0.359 0.359,-0.359 l 46.939,0 c 0.198,0 0.359,0.161 0.359,0.359 l 0,26.476 z m 3.62,-11.009 c 0,0.198 -0.161,0.359 -0.359,0.359 -0.198,0 -0.359,-0.161 -0.359,-0.359 l 0,-4.487 c 0,-0.197 0.161,-0.358 0.359,-0.358 0.198,0 0.359,0.161 0.359,0.358 l 0,4.487 z m 2.213,-1.795 c -0.33,0 -0.598,-0.267 -0.598,-0.598 0,-0.331 0.268,-0.599 0.598,-0.599 0.331,0 0.599,0.268 0.599,0.599 0,0.331 -0.268,0.598 -0.599,0.598 z"
         id="path16"
         inkscape:connector-curvature="0" /></g><path
       d="m 63.517,44.91 -1.689,1.824 C 60.869,37.169 55.296,32.619 50.694,30.481 45.571,28.098 40.666,28.141 40.46,28.141 l -0.529,0.008 0,1.435 0.548,-0.007 c 0.046,-0.004 4.825,-0.033 9.654,2.227 6.056,2.833 9.495,7.841 10.247,14.894 l -1.727,-1.601 0.079,2.065 2.524,2.34 2.34,-2.525 -0.079,-2.067 z"
       id="path18"
       inkscape:connector-curvature="0" /></g></svg>